<svg width="23" height="24" viewBox="0 0 23 24" fill="none" xmlns="http://www.w3.org/2000/svg">
<path d="M21.9975 2.68218V6.30381C21.9975 6.58222 21.8869 6.84923 21.69 7.0461C21.4931 7.24296 21.2261 7.35356 20.9477 7.35356H17.2736C17.1214 7.35528 16.9707 7.3239 16.8319 7.26159C16.6931 7.19928 16.5694 7.10753 16.4696 6.9927C16.3697 6.87787 16.296 6.7427 16.2536 6.59656C16.2112 6.45042 16.201 6.2968 16.2239 6.14635C16.2732 5.8917 16.4108 5.66262 16.6124 5.49941C16.814 5.3362 17.0667 5.24932 17.3261 5.25407H18.5333C17.3106 3.89242 15.7188 2.9152 13.9512 2.44112C12.1836 1.96704 10.3164 2.01652 8.57644 2.58354C6.83645 3.15056 5.2986 4.21072 4.14973 5.63521C3.00086 7.05969 2.29043 8.78718 2.10476 10.6078C2.07865 10.8676 1.95662 11.1084 1.76252 11.2831C1.56841 11.4578 1.31615 11.5539 1.05501 11.5526C0.90786 11.5533 0.762198 11.5231 0.627477 11.4639C0.492755 11.4047 0.371983 11.3178 0.272997 11.209C0.174012 11.1001 0.0990244 10.9716 0.0529004 10.8319C0.00677634 10.6921 -0.00945376 10.5442 0.00526334 10.3978C0.22573 8.19395 1.07538 6.09997 2.4529 4.36557C3.83042 2.63117 5.67768 1.32953 7.77444 0.615859C9.87119 -0.0978116 12.129 -0.193404 14.2785 0.340482C16.4281 0.874367 18.3788 2.0152 19.898 3.62696V2.6297C19.8963 2.47753 19.9276 2.32681 19.9899 2.18798C20.0523 2.04914 20.144 1.92552 20.2588 1.82566C20.3737 1.72581 20.5088 1.65212 20.655 1.60969C20.8011 1.56726 20.9547 1.55711 21.1052 1.57995C21.3598 1.62931 21.5889 1.76691 21.7521 1.96852C21.9153 2.17013 22.0022 2.42284 21.9975 2.68218Z" fill="#6A6A6A"/>
<path d="M1.00263 20.4229V16.8012C1.00263 16.5228 1.11322 16.2558 1.31009 16.059C1.50696 15.8621 1.77396 15.7515 2.05237 15.7515H5.72649C5.87865 15.7498 6.02938 15.7812 6.16821 15.8435C6.30704 15.9058 6.43067 15.9975 6.53052 16.1124C6.63038 16.2272 6.70407 16.3624 6.7465 16.5085C6.78893 16.6546 6.79907 16.8083 6.77624 16.9587C6.72687 17.2134 6.58928 17.4424 6.38767 17.6056C6.18606 17.7689 5.93335 17.8557 5.674 17.851H4.46679C5.68949 19.2126 7.28133 20.1899 9.0489 20.6639C10.8165 21.138 12.6837 21.0885 14.4237 20.5215C16.1636 19.9545 17.7015 18.8943 18.8504 17.4698C19.9992 16.0454 20.7097 14.3179 20.8953 12.4973C20.9215 12.2374 21.0435 11.9967 21.2376 11.822C21.4317 11.6473 21.6839 11.5512 21.9451 11.5525C22.0922 11.5518 22.2379 11.582 22.3726 11.6412C22.5073 11.7004 22.6281 11.7872 22.7271 11.8961C22.8261 12.005 22.9011 12.1335 22.9472 12.2732C22.9933 12.4129 23.0096 12.5608 22.9948 12.7072C22.7744 14.9111 21.9247 17.0051 20.5472 18.7395C19.1697 20.4739 17.3224 21.7755 15.2257 22.4892C13.1289 23.2029 10.8711 23.2985 8.72157 22.7646C6.57199 22.2307 4.62131 21.0899 3.10212 19.4781V20.4754C3.10384 20.6275 3.07246 20.7782 3.01015 20.9171C2.94784 21.0559 2.85609 21.1795 2.74126 21.2794C2.62643 21.3792 2.49126 21.4529 2.34512 21.4954C2.19898 21.5378 2.04536 21.5479 1.89491 21.5251C1.64026 21.4757 1.41118 21.3382 1.24797 21.1365C1.08476 20.9349 0.997885 20.6822 1.00263 20.4229Z" fill="#6A6A6A"/>
<path d="M11.8676 10.5029C10.0306 10.1354 10.0306 9.82052 10.0306 9.55809C10.0306 9.29565 10.1356 9.24316 10.293 9.0857C10.5826 8.93003 10.9095 8.85737 11.2378 8.87575C11.8477 8.87046 12.4471 9.03395 12.9699 9.34814C13.0761 9.43485 13.2 9.49738 13.3329 9.5314C13.4657 9.56542 13.6044 9.57011 13.7392 9.54514C13.8741 9.52016 14.0019 9.46613 14.1138 9.38679C14.2256 9.30745 14.3189 9.20471 14.387 9.0857C14.477 8.97837 14.5434 8.85329 14.5818 8.71861C14.6202 8.58393 14.6298 8.44267 14.61 8.30403C14.5902 8.16539 14.5414 8.03247 14.4668 7.91393C14.3922 7.7954 14.2935 7.6939 14.1771 7.61605C13.678 7.30798 13.1264 7.09447 12.55 6.98621V5.779C12.55 5.50059 12.4394 5.23358 12.2425 5.03671C12.0457 4.83985 11.7786 4.72925 11.5002 4.72925C11.2218 4.72925 10.9548 4.83985 10.758 5.03671C10.5611 5.23358 10.4505 5.50059 10.4505 5.779V6.93372C8.87587 7.19615 7.82612 8.2459 7.82612 9.66306C7.82612 11.0802 9.5582 12.2349 11.2378 12.5499C12.9174 12.8648 12.9699 13.2322 12.9699 13.4946C12.9699 13.7571 12.3925 14.2295 11.6577 14.2295C10.8849 14.2447 10.1286 14.0049 9.50571 13.5471C9.38908 13.4696 9.25811 13.4161 9.12051 13.39C8.98291 13.3638 8.84147 13.3655 8.70451 13.3948C8.56756 13.4242 8.43786 13.4806 8.32306 13.5609C8.20826 13.6411 8.11068 13.7435 8.03607 13.8621C7.9533 13.9605 7.89151 14.0748 7.85447 14.198C7.81744 14.3211 7.80594 14.4506 7.82068 14.5783C7.83542 14.7061 7.8761 14.8295 7.94021 14.941C8.00432 15.0525 8.09052 15.1497 8.19353 15.2267C8.86892 15.7007 9.63884 16.023 10.4505 16.1715V17.3262C10.4505 17.6046 10.5611 17.8716 10.758 18.0685C10.9548 18.2654 11.2218 18.376 11.5002 18.376C11.7786 18.376 12.0457 18.2654 12.2425 18.0685C12.4394 17.8716 12.55 17.6046 12.55 17.3262V16.1715C13.1258 16.0866 13.6689 15.8512 14.1246 15.4892C14.4536 15.2476 14.7204 14.9312 14.903 14.5662C15.0855 14.2011 15.1785 13.7978 15.1744 13.3897C15.1744 11.4476 13.3898 10.8178 11.8676 10.5029Z" fill="#6A6A6A"/>
</svg>
