<svg width="23" height="19" viewBox="0 0 23 19" fill="none" xmlns="http://www.w3.org/2000/svg">
<g clip-path="url(#clip0_2386_2)">
<path d="M0 18.1093V6.35679C0 5.38452 0.571406 4.51245 1.44469 4.15249L11.0723 0.178076C11.3455 0.0630371 11.6509 0.0630371 11.9277 0.178076L21.5553 4.15249C22.4286 4.51245 23 5.38823 23 6.35679V18.1093C23 18.6029 22.6155 19 22.1375 19H20.4125C19.9345 19 19.55 18.6029 19.55 18.1093V8.31245C19.55 7.65562 19.0361 7.12495 18.4 7.12495H4.6C3.96391 7.12495 3.45 7.65562 3.45 8.31245V18.1093C3.45 18.6029 3.06547 19 2.5875 19H0.8625C0.384531 19 0 18.6029 0 18.1093ZM17.5375 19H5.4625C4.98453 19 4.6 18.6029 4.6 18.1093V16.0312H18.4V18.1093C18.4 18.6029 18.0155 19 17.5375 19ZM4.6 14.8437V12.4687H18.4V14.8437H4.6ZM4.6 11.2812V8.31245H18.4V11.2812H4.6Z" fill="#6A6A6A"/>
</g>
<defs>
<clipPath id="clip0_2386_2">
<rect width="23" height="19" fill="white"/>
</clipPath>
</defs>
</svg>
